<svg width="180" height="174" viewBox="0 0 180 174" fill="none" xmlns="http://www.w3.org/2000/svg">
<path d="M13.5354 77.422H70.9487L90.6483 57.7224H33.2351L13.5354 77.422Z" fill="#7C7C7C"/>
<path d="M90.6483 57.7224L70.9487 77.422V125.689L90.6483 173.257V57.7224Z" fill="#5A5A5A"/>
<path d="M15.8595 98.4683H43.7283L70.9487 125.689L90.6484 173.257L15.8595 98.4683Z" fill="#7C7C7C"/>
<path d="M93.531 57.7123L93.521 173.247L113.231 153.547V77.422L93.531 57.7123Z" fill="#5A5A5A"/>
<path d="M150.944 57.7123L142.775 77.422H113.231L93.531 57.7123H150.944Z" fill="#7C7C7C"/>
<path d="M152.131 86.778L126.926 111.984V139.852L180 86.778H152.131Z" fill="#7C7C7C"/>
<path d="M150.944 57.7123L142.775 77.422L152.131 86.7781H180L150.944 57.7123Z" fill="#5A5A5A"/>
<path d="M29.9734 48.506L57.114 27.7092H44.0474L76.9434 8.76759L27.5895 29.744H39.7085L27.1706 37.6937C17.7945 43.6584 11.5704 54.1416 11.5704 66.0711C11.5704 70.051 12.2686 73.8812 13.5354 77.4221C5.17677 69.2231 0 57.8023 0 45.1745C0 20.2283 20.2283 0 45.1745 0H90.3491L76.8935 26.7716C69.5123 41.6735 54.1516 51.9173 36.397 51.9173C33.3847 51.9173 30.4522 51.6281 27.6094 51.0595C28.3276 50.1518 29.1156 49.304 29.9734 48.506Z" fill="#7CB245"/>
</svg>
