<svg width="486" height="174" viewBox="0 0 486 174" fill="none" xmlns="http://www.w3.org/2000/svg">
<path d="M204.691 57.0901V89.887C204.691 94.9753 202.879 99.3311 199.276 102.944C195.663 106.558 191.317 108.359 186.219 108.359V100.281C189.079 100.281 191.525 99.2618 193.564 97.2225C195.603 95.1832 196.623 92.7381 196.623 89.8771V57.0901H204.691Z" fill="#5A5A5A"/>
<path d="M252.258 71.1275C252.446 75.2951 251.09 78.9084 248.179 81.9674C245.269 85.0263 241.705 86.5508 237.488 86.5508H220.035V108.003H211.957V78.5421H237.488H237.557C239.398 78.5421 240.972 77.8888 242.289 76.582C243.596 75.2753 244.249 73.7013 244.249 71.8501C244.249 70.0088 243.596 68.4348 242.289 67.1182C240.982 65.8115 239.398 65.1581 237.557 65.1581H211.957V57.0801H237.488C241.418 57.0801 244.803 58.4364 247.635 61.1488C250.476 63.8613 252.01 67.1578 252.258 71.0384V71.1275Z" fill="#5A5A5A"/>
<path d="M280.966 55.7736C283.679 55.7736 286.322 56.1893 288.896 57.011C291.469 57.8326 293.816 58.9711 295.954 60.4263C298.082 61.8815 299.973 63.6238 301.626 65.6631L295.736 71.5533C294.043 69.2269 291.895 67.3955 289.301 66.0591C286.708 64.7227 283.926 64.0594 280.976 64.0594C275.888 64.0594 271.532 65.871 267.919 69.4744C264.305 73.0877 262.504 77.4435 262.504 82.5318C262.504 87.6201 264.315 91.9758 267.919 95.5891C271.532 99.2024 275.878 101.004 280.976 101.004C283.401 101.004 285.728 100.549 287.955 99.6182V108.35C285.678 108.983 283.352 109.3 280.976 109.3C276.125 109.3 271.641 108.102 267.523 105.696C263.405 103.301 260.158 100.054 257.772 95.9554C255.396 91.857 254.208 87.3825 254.208 82.5318C254.208 77.681 255.396 73.2065 257.772 69.1081C260.148 65.0097 263.395 61.7627 267.523 59.3671C271.631 56.9813 276.115 55.7736 280.966 55.7736ZM293.905 90.6196H278.481V82.5417H304.012V107.993H295.944V90.6097H293.905V90.6196Z" fill="#7CB245"/>
<path d="M343.729 107.993L330.345 86.541H319.366V107.993H311.288V78.5324H336.819H336.888C338.729 78.5324 340.303 77.879 341.62 76.5723C342.927 75.2656 343.58 73.6915 343.58 71.8403C343.58 69.9991 342.927 68.425 341.62 67.1084C340.313 65.8017 338.729 65.1483 336.888 65.1483H311.288V57.0704H336.819C340.749 57.0704 344.135 58.4266 346.966 61.139C349.807 63.8515 351.341 67.148 351.589 71.0286V71.0979C351.737 74.731 350.678 77.9978 348.421 80.8785C346.164 83.7692 343.244 85.5709 339.66 86.2935L353.193 107.963H343.729V107.993Z" fill="#7CB245"/>
<path d="M355.568 57.0902H394.839V65.1682H355.568V57.0902ZM394.839 99.9251V108.003H355.568V78.5423H394.839V86.5411H363.636V99.9251H394.839Z" fill="#7CB245"/>
<path d="M399.67 57.0902H438.942V65.1682H399.67V57.0902ZM438.942 99.9251V108.003H399.67V78.5423H438.942V86.5411H407.738V99.9251H438.942Z" fill="#7CB245"/>
<path d="M485.736 107.993C484.331 107.993 482.182 107.993 479.302 107.993C476.411 107.993 474.243 107.993 472.788 107.993L451.841 65.376H443.763V57.0803H456.711L477.728 99.6974V57.0902H485.726V107.993H485.736ZM451.841 107.993H443.763V78.7601H451.841V107.993Z" fill="#7CB245"/>
<path d="M186.219 121.199H225.371V129.247H186.219V121.199V121.199ZM225.371 163.905V171.953H186.219V142.592H225.371V150.571H194.267V163.915H225.371V163.905Z" fill="#5A5A5A"/>
<path d="M279.343 171.953C277.937 171.953 275.799 171.953 272.928 171.953C270.047 171.953 267.889 171.953 266.434 171.953L245.556 129.465H237.508V121.199H250.416L271.364 163.687V121.199H279.343V171.953V171.953ZM245.556 171.953H237.508V142.809H245.556V171.953Z" fill="#5A5A5A"/>
<path d="M291.469 121.199H330.622V129.247H291.469V121.199ZM330.622 163.905V171.953H291.469V142.592H330.622V150.571H299.518V163.915H330.622V163.905Z" fill="#5A5A5A"/>
<path d="M372.645 171.953L359.3 150.561H348.352V171.953H340.303V142.592H365.755H365.824C367.656 142.592 369.23 141.938 370.536 140.632C371.843 139.325 372.496 137.761 372.496 135.919C372.496 134.088 371.843 132.514 370.536 131.207C369.23 129.9 367.656 129.247 365.824 129.247H340.303V121.199H365.755C369.675 121.199 373.041 122.555 375.872 125.258C378.703 127.96 380.228 131.247 380.475 135.118V135.187C380.624 138.81 379.565 142.067 377.317 144.938C375.07 147.818 372.16 149.61 368.576 150.343L382.059 171.943H372.645V171.953Z" fill="#5A5A5A"/>
<path d="M413.549 119.892C416.252 119.892 418.885 120.308 421.449 121.12C424.013 121.941 426.359 123.08 428.478 124.525C430.606 125.98 432.487 127.713 434.13 129.742L428.26 135.612C426.567 133.296 424.429 131.465 421.845 130.138C419.261 128.811 416.49 128.148 413.54 128.148C408.461 128.148 404.125 129.95 400.522 133.553C396.918 137.157 395.117 141.493 395.117 146.571C395.117 151.65 396.918 155.985 400.522 159.589C404.125 163.192 408.461 164.994 413.54 164.994C415.955 164.994 418.271 164.539 420.499 163.618V172.32C418.222 172.943 415.905 173.26 413.54 173.26C408.709 173.26 404.234 172.062 400.126 169.667C396.018 167.271 392.78 164.034 390.414 159.955C388.048 155.867 386.861 151.412 386.861 146.581C386.861 141.75 388.048 137.285 390.414 133.207C392.78 129.128 396.018 125.881 400.126 123.495C404.244 121.09 408.719 119.892 413.549 119.892ZM426.458 154.619H411.084V146.571H436.536V171.943H428.488V154.619H426.458Z" fill="#5A5A5A"/>
<path d="M458.325 132.514H448.465L440.634 121.199H450.425L458.325 132.514ZM475.946 121.199H485.736L467.244 147.809V171.953H459.196V145.274L475.946 121.199Z" fill="#5A5A5A"/>
<path d="M13.4336 76.8394H70.4148L89.9662 57.288H32.985L13.4336 76.8394Z" fill="#7C7C7C"/>
<path d="M89.9662 57.288L70.4148 76.8394V124.743L89.9662 171.953V57.288Z" fill="#5A5A5A"/>
<path d="M15.7401 97.7273H43.3992L70.4148 124.743L89.9662 171.953L15.7401 97.7273Z" fill="#7C7C7C"/>
<path d="M92.8271 57.2781L92.8172 171.943L112.379 152.392V76.8394L92.8271 57.2781Z" fill="#5A5A5A"/>
<path d="M149.808 57.2781L141.701 76.8394H112.379L92.8271 57.2781H149.808Z" fill="#7C7C7C"/>
<path d="M150.986 86.1249L125.97 111.141V138.8L178.645 86.1249H150.986Z" fill="#7C7C7C"/>
<path d="M149.808 57.2781L141.701 76.8394L150.986 86.1251H178.645L149.808 57.2781Z" fill="#5A5A5A"/>
<path d="M29.7478 48.141L56.6842 27.5007H43.716L76.3643 8.70162L27.3819 29.5201H39.4097L26.9661 37.41C17.6606 43.3299 11.4834 53.7342 11.4834 65.5739C11.4834 69.5238 12.1763 73.3252 13.4335 76.8395C5.13781 68.7022 0 57.3673 0 44.8346C0 20.0761 20.0761 0 44.8346 0H89.6692L76.3148 26.5701C68.9893 41.3599 53.7441 51.5266 36.1231 51.5266C33.1335 51.5266 30.223 51.2395 27.4017 50.6753C28.1144 49.7744 28.8965 48.933 29.7478 48.141Z" fill="#7CB245"/>
</svg>
