<svg width="65" height="65" viewBox="0 0 65 65" fill="none" xmlns="http://www.w3.org/2000/svg">
<path fill-rule="evenodd" clip-rule="evenodd" d="M65 15.1583C65 15.1489 64.9979 15.1401 64.9957 15.1313C64.9939 15.1239 64.9921 15.1163 64.9916 15.1084C64.9868 15.0283 64.9759 14.9503 64.9531 14.8744C64.9456 14.8521 64.9353 14.8313 64.925 14.8104C64.9202 14.8008 64.9154 14.7911 64.9109 14.7813L64.9094 14.7778C64.8847 14.7206 64.8608 14.6654 64.8255 14.6133C64.8107 14.5912 64.7931 14.571 64.7757 14.5511C64.7677 14.5419 64.7596 14.5327 64.752 14.5234C64.7135 14.4768 64.6738 14.4313 64.6281 14.3913C64.6002 14.3672 64.5686 14.3457 64.5374 14.3244L64.5257 14.3165C64.5127 14.3074 64.5005 14.2976 64.4883 14.2878C64.4699 14.2731 64.4516 14.2584 64.4306 14.2461C64.4195 14.2402 64.4075 14.2359 64.3957 14.2316C64.3931 14.2306 64.3904 14.2297 64.3878 14.2287C64.3807 14.2261 64.3736 14.2233 64.3669 14.2201C64.3595 14.2163 64.3528 14.2117 64.346 14.207C64.3375 14.2011 64.3288 14.1951 64.3187 14.1908L31.8187 0.107515C31.4769 -0.0409017 31.0784 -0.035485 30.7414 0.122682L0.648796 14.206C0.642176 14.2093 0.636759 14.2133 0.631343 14.2174C0.625926 14.2215 0.620509 14.2255 0.613889 14.2288C0.607766 14.2318 0.601128 14.2341 0.594333 14.2364C0.586437 14.2392 0.578316 14.242 0.570556 14.2461C0.543768 14.261 0.521106 14.2791 0.498181 14.2975C0.486084 14.3072 0.473906 14.3169 0.461018 14.3263C0.450396 14.3338 0.439552 14.3412 0.428687 14.3486C0.403854 14.3655 0.378901 14.3825 0.356296 14.4021C0.311705 14.4422 0.276266 14.4865 0.239941 14.5318L0.23713 14.5353C0.228275 14.5465 0.218769 14.5572 0.20927 14.5679C0.192946 14.5863 0.176638 14.6047 0.163704 14.6253C0.126389 14.6827 0.101111 14.7444 0.0770369 14.8073C0.0726298 14.8183 0.067426 14.8288 0.0622357 14.8392C0.0546674 14.8545 0.0471279 14.8696 0.0421297 14.8863C0.0156483 14.9752 0 15.0694 0 15.1658V49.8325C0 50.2431 0.257593 50.6179 0.665648 50.8021L31.9619 64.8854C31.9672 64.8877 31.9726 64.8889 31.978 64.8898C31.9819 64.8905 31.9858 64.8909 31.9896 64.8914C31.999 64.8925 32.0083 64.8936 32.0173 64.8973C32.1726 64.958 32.3339 64.9992 32.5 64.9992C32.6661 64.9992 32.8286 64.958 32.9827 64.8963C32.9917 64.8925 33.0012 64.8914 33.0106 64.8903C33.0202 64.8892 33.0296 64.8882 33.0381 64.8844L64.3344 50.801C64.7424 50.6179 65 50.2431 65 49.8325V15.1583ZM31.3168 2.29368L61.0639 15.1843L48.1799 20.9821L20.2051 7.49423L31.3168 2.29368ZM32.5 28.038L45.8071 22.0498L17.8773 8.5837L3.85306 15.1474L32.5 28.038ZM2.40741 16.9187L31.2963 29.9187V62.163L2.40741 49.163V16.9187ZM62.5926 49.163L33.7037 62.163V29.9187L46.6667 24.0853V34H48.6667V23.1853L62.5926 16.9187V49.163Z" fill="#F6F6F6"/>
</svg>
