<svg width="35" height="35" viewBox="0 0 35 35" fill="none" xmlns="http://www.w3.org/2000/svg">
<path d="M28.5868 0.317783C28.4708 0.121193 28.2556 0 28.0225 0H14.6112C14.3321 0 14.084 0.173145 13.9947 0.430289L8.24704 16.9873C8.18007 17.1804 8.21286 17.393 8.335 17.5584C8.45723 17.7239 8.65397 17.8221 8.86355 17.8221H14.3123L8.04119 34.1462C7.93033 34.4348 8.04952 34.7591 8.32346 34.9141C8.42583 34.972 8.5386 35 8.65041 35C8.83779 35 9.0223 34.9214 9.14973 34.7734L26.6057 14.4911C26.7678 14.3027 26.8031 14.0401 26.6961 13.8175C26.5893 13.5949 26.3594 13.4526 26.1067 13.4526H21.0672L28.5842 0.951831C28.7018 0.756169 28.7028 0.514373 28.5868 0.317783ZM19.3714 13.7658C19.2538 13.9615 19.2527 14.2033 19.3688 14.3998C19.4848 14.5964 19.7 14.7176 19.9331 14.7176H24.7138L10.5891 31.1295L15.8593 17.4109C15.9339 17.2167 15.9059 16.9993 15.7843 16.8289C15.6628 16.6586 15.4631 16.557 15.2499 16.557H9.7698L15.0783 1.26506H26.8884L19.3714 13.7658Z" fill="#F6F6F6"/>
</svg>
