<svg width="63" height="63" viewBox="0 0 63 63" fill="none" xmlns="http://www.w3.org/2000/svg">
<path d="M36.0685 29.543L37.2191 27.082H22.4457C22.6708 26.0182 22.9823 25.0327 23.3803 24.1257C24.2965 22.027 25.5483 20.4236 27.1357 19.3157C28.723 18.1971 30.5234 17.6378 32.5369 17.6378C33.4957 17.6378 34.4119 17.7656 35.2855 18.0213C36.1591 18.2663 36.9901 18.6232 37.7784 19.092C38.5668 19.5607 39.3072 20.1254 39.9996 20.7859L41.1662 18.261C40.0263 17.1637 38.7266 16.3168 37.267 15.7202C35.8075 15.1236 34.2308 14.8253 32.5369 14.8253C29.9162 14.8253 27.5938 15.5178 25.5696 16.9027C23.5561 18.2876 21.9741 20.2425 20.8235 22.7674C20.2264 24.0843 19.7857 25.5225 19.5014 27.082H16.2212L15.2784 29.543H19.1899C19.139 30.2211 19.1136 30.9189 19.1136 31.6364C19.1136 32.3536 19.139 33.0514 19.1898 33.7298H16.2212L15.2784 36.1907H19.5007C19.785 37.7543 20.226 39.1978 20.8235 40.5213C21.9741 43.0355 23.5561 44.9851 25.5696 46.37C27.5938 47.755 29.9162 48.4474 32.5369 48.4474C34.1776 48.4474 35.733 48.1705 37.2031 47.6165C38.6733 47.0625 39.9677 46.2528 41.0863 45.1875L39.8718 42.6307C39.2219 43.2273 38.5135 43.7546 37.7464 44.2127C36.9794 44.6602 36.1591 45.0117 35.2855 45.2674C34.4226 45.5124 33.5064 45.6349 32.5369 45.6349C30.5234 45.6349 28.723 45.081 27.1357 43.973C25.5483 42.8544 24.2965 41.2511 23.3803 39.163C22.9817 38.2499 22.6698 37.2591 22.4446 36.1907H33.1282L34.2788 33.7298H22.0903C22.0341 33.0571 22.006 32.3593 22.006 31.6364C22.006 30.9131 22.0342 30.2153 22.0904 29.543H36.0685Z" fill="#F6F6F6"/>
<path fill-rule="evenodd" clip-rule="evenodd" d="M63 31.5C63 48.897 48.897 63 31.5 63C14.103 63 0 48.897 0 31.5C0 14.103 14.103 0 31.5 0C48.897 0 63 14.103 63 31.5ZM61 31.5C61 47.7924 47.7924 61 31.5 61C15.2076 61 2 47.7924 2 31.5C2 15.2076 15.2076 2 31.5 2C47.7924 2 61 15.2076 61 31.5Z" fill="#F6F6F6"/>
</svg>
