<svg width="28" height="28" viewBox="0 0 28 28" fill="none" xmlns="http://www.w3.org/2000/svg">
<path d="M7.4782 14.9128H10.7281V27.5484C10.7281 27.7979 10.9421 28 11.2063 28H16.7166C16.9808 28 17.1948 27.7979 17.1948 27.5484V14.9723H20.9309C21.1738 14.9723 21.3782 14.8002 21.4059 14.5723L21.9733 9.92049C21.9889 9.7925 21.946 9.66434 21.8553 9.56832C21.7646 9.47222 21.6347 9.41721 21.4984 9.41721H17.195V6.50124C17.195 5.62222 17.6962 5.17648 18.6847 5.17648C18.8256 5.17648 21.4984 5.17648 21.4984 5.17648C21.7626 5.17648 21.9766 4.97424 21.9766 4.72486V0.454955C21.9766 0.205484 21.7626 0.00334194 21.4984 0.00334194H17.6207C17.5934 0.00207742 17.5326 0 17.4431 0C16.7703 0 14.4316 0.124735 12.5843 1.72977C10.5374 3.5084 10.8219 5.63803 10.8899 6.00726V9.41712H7.4782C7.21404 9.41712 7 9.61926 7 9.86874V14.4611C7 14.7106 7.21404 14.9128 7.4782 14.9128Z" fill="#F6F6F6"/>
</svg>
