<svg width="28" height="28" viewBox="0 0 28 28" fill="none" xmlns="http://www.w3.org/2000/svg">
<path fill-rule="evenodd" clip-rule="evenodd" d="M13.9999 6.75765C10.0068 6.75765 6.75812 10.0063 6.75812 13.9994C6.75812 17.9925 10.0068 21.2412 13.9999 21.2412C17.993 21.2412 21.2417 17.9925 21.2417 13.9994C21.2417 10.0063 17.993 6.75765 13.9999 6.75765ZM13.9999 18.4244C11.556 18.4244 9.57492 16.4433 9.57492 13.9994C9.57492 11.5556 11.5561 9.57445 13.9999 9.57445C16.4438 9.57445 18.4249 11.5556 18.4249 13.9994C18.4249 16.4433 16.4437 18.4244 13.9999 18.4244Z" fill="#F6F6F6"/>
<path d="M22.9907 6.80941C22.9907 7.76626 22.2139 8.54194 21.2555 8.54194C20.2972 8.54194 19.5203 7.76626 19.5203 6.80941C19.5203 5.85256 20.2972 5.07689 21.2555 5.07689C22.2139 5.07689 22.9907 5.85256 22.9907 6.80941Z" fill="#F6F6F6"/>
<path fill-rule="evenodd" clip-rule="evenodd" d="M19.6586 0H8.34135C3.74191 0 0 3.74191 0 8.34135V19.6586C0 24.2581 3.74191 28 8.34135 28H19.6586C24.2581 28 28 24.2581 28 19.6586V8.34135C27.9999 3.74191 24.258 0 19.6586 0ZM25.1832 19.6586C25.1832 22.7097 22.7097 25.1832 19.6586 25.1832H8.34135C5.29025 25.1832 2.8168 22.7097 2.8168 19.6586V8.34135C2.8168 5.2902 5.29025 2.8168 8.34135 2.8168H19.6586C22.7097 2.8168 25.1832 5.2902 25.1832 8.34135V19.6586Z" fill="#F6F6F6"/>
</svg>
