<svg width="29" height="28" viewBox="0 0 29 28" fill="none" xmlns="http://www.w3.org/2000/svg">
<path d="M3.70917 0C1.66392 0 0 1.66581 0 3.71335C0 5.76181 1.66392 7.42825 3.70917 7.42825C5.75281 7.42825 7.41537 5.76172 7.41537 3.71335C7.41546 1.66581 5.75281 0 3.70917 0Z" fill="#F6F6F6"/>
<path d="M6.51753 8.99626H0.896509C0.647039 8.99626 0.444898 9.19894 0.444898 9.44887V27.547C0.444898 27.797 0.647039 27.9996 0.896509 27.9996H6.51753C6.767 27.9996 6.96915 27.797 6.96915 27.547V9.44887C6.96915 9.19894 6.767 8.99626 6.51753 8.99626Z" fill="#F6F6F6"/>
<path d="M15.8765 10.6246C16.8887 9.5194 18.5576 8.54673 20.8152 8.54673C27.1464 8.54673 28 13.1335 28 17.6202V27.5474C28 27.7974 27.7979 28 27.5484 28H21.9376C21.6881 28 21.486 27.7974 21.486 27.5474V18.7482C21.486 16.2845 21.3043 14.4 19.0186 14.4C16.9199 14.4 16.1021 15.5755 16.1021 18.5929V27.5473C16.1021 27.7973 15.9 27.9999 15.6505 27.9999H10.0418C9.7923 27.9999 9.59016 27.7973 9.59016 27.5473V9.44915C9.59016 9.19922 9.7923 8.99654 10.0418 8.99654H15.4249C15.6744 8.99654 15.8765 9.19922 15.8765 9.44915V10.6246Z" fill="#F6F6F6"/>
</svg>
