<svg width="35" height="35" viewBox="0 0 35 35" fill="none" xmlns="http://www.w3.org/2000/svg">
<path d="M2 32V3H3L3 15.9393L7.24264 11.6967C7.53553 11.4038 8.01041 11.4038 8.3033 11.6967C8.59619 11.9896 8.59619 12.4645 8.3033 12.7574L4.81066 16.25H30.1893L26.6967 12.7574C26.4038 12.4645 26.4038 11.9896 26.6967 11.6967C26.9896 11.4038 27.4645 11.4038 27.7574 11.6967L32 15.9393V3H33L33 32H32V18.0607L27.7574 22.3033C27.4645 22.5962 26.9896 22.5962 26.6967 22.3033C26.4038 22.0104 26.4038 21.5355 26.6967 21.2426L30.1893 17.75H4.81066L8.3033 21.2426C8.59619 21.5355 8.59619 22.0104 8.3033 22.3033C8.01041 22.5962 7.53553 22.5962 7.24264 22.3033L3 18.0607L3 32H2Z" fill="#F6F6F6"/>
</svg>
