<svg width="35" height="35" viewBox="0 0 35 35" fill="none" xmlns="http://www.w3.org/2000/svg">
<path d="M4.215 27.36V18.882H9.831L15.285 27.36H16.689L10.857 18.234L16.635 9.27H15.231L9.777 17.775H4.215V9.27H3V27.36H4.215Z" fill="#F6F6F6"/>
<path d="M24.7386 27.63C27.4656 27.63 29.9226 26.577 30.9756 24.093H31.0566V27.36H32.0826V18.639H24.2256V19.719H30.9216V20.988C30.9216 24.552 28.7346 26.442 24.8736 26.442C20.2836 26.442 17.9616 23.553 17.9616 18.315C17.9616 13.077 20.2836 10.188 24.8196 10.188C28.7076 10.188 30.8136 12.105 30.8136 15.453V15.696H32.0826V15.453C32.0826 11.538 28.9506 9 24.8736 9C19.9056 9 16.7196 12.672 16.7196 18.315C16.7196 23.985 19.8246 27.63 24.7386 27.63Z" fill="#F6F6F6"/>
</svg>
