<svg width="33" height="20" viewBox="0 0 33 20" fill="none" xmlns="http://www.w3.org/2000/svg">
<g clip-path="url(#clip0_555_66)">
<path d="M0 0H33V20H0V0Z" fill="#012169"/>
<path d="M3.86719 0L16.4484 7.54167L28.9781 0H33V2.58333L20.625 10.0417L33 17.4583V20H28.875L16.5 12.5417L4.17656 20H0V17.5L12.3234 10.0833L0 2.66667V0H3.86719Z" fill="white"/>
<path d="M21.8625 11.7083L33 18.3333V20L19.0266 11.7083H21.8625ZM12.375 12.5417L12.6844 14L2.78437 20H0L12.375 12.5417ZM33 0V0.125L20.1609 7.95833L20.2641 6.125L30.4219 0H33ZM0 0L12.3234 7.33333H9.22969L0 1.75V0Z" fill="#C8102E"/>
<path d="M12.4266 0V20H20.6766V0H12.4266ZM0 6.66667V13.3333H33V6.66667H0Z" fill="white"/>
<path d="M0 8.04167V12.0417H33V8.04167H0ZM14.0766 0V20H19.0266V0H14.0766Z" fill="#C8102E"/>
</g>
<defs>
<clipPath id="clip0_555_66">
<rect width="33" height="20" rx="3" fill="white"/>
</clipPath>
</defs>
</svg>
