<svg width="33" height="20" viewBox="0 0 33 20" fill="none" xmlns="http://www.w3.org/2000/svg">
<g clip-path="url(#clip0_555_72)">
<path d="M0 0H33V20H0V0Z" fill="#EE1C25"/>
<path d="M0 0H33V13.3333H0V0Z" fill="#0B4EA2"/>
<path d="M0 0H33V6.66667H0V0Z" fill="white"/>
<path d="M12.0145 15.4498C9.79734 14.5873 6.62109 12.8706 6.62109 9.48314C6.62109 6.09147 6.82734 4.5498 6.82734 4.5498H17.2069C17.2069 4.5498 17.408 6.09147 17.408 9.48314C17.408 12.8748 14.2317 14.5831 12.0145 15.4498Z" fill="white"/>
<path d="M12.0145 15C9.97773 14.2083 7.06445 12.6333 7.06445 9.525C7.06445 6.41667 7.25008 5 7.25008 5H16.7788C16.7788 5 16.9593 6.41667 16.9593 9.525C16.9645 12.6375 14.0512 14.2083 12.0145 15Z" fill="#EE1C25"/>
<path d="M12.4476 8.70814C12.9993 8.71647 14.077 8.73314 15.0309 8.4748C15.0309 8.4748 15.0102 8.75397 15.0102 9.07481C15.0102 9.39564 15.036 9.6748 15.036 9.6748C14.1595 9.4373 13.0715 9.43314 12.4476 9.4373V11.154H11.5813V9.4373C10.9626 9.43314 9.87461 9.4373 8.99805 9.6748C8.99805 9.6748 9.02383 9.39564 9.02383 9.07481C9.02383 8.7498 8.99805 8.4748 8.99805 8.4748C9.95195 8.73314 11.0296 8.71647 11.5762 8.70814V7.62897C11.076 7.62897 10.3541 7.64564 9.5343 7.86647C9.5343 7.86647 9.56008 7.59147 9.56008 7.26647C9.56008 6.94564 9.5343 6.66647 9.5343 6.66647C10.3541 6.8873 11.076 6.90814 11.5762 6.90397C11.5504 6.22064 11.3029 5.3623 11.3029 5.3623C11.3029 5.3623 11.8134 5.39147 12.0145 5.39147C12.2207 5.39147 12.726 5.3623 12.726 5.3623C12.726 5.3623 12.4785 6.22064 12.4527 6.90397C12.9529 6.90814 13.6748 6.8873 14.4946 6.66647C14.4946 6.66647 14.4688 6.94564 14.4688 7.26647C14.4688 7.59147 14.4946 7.86647 14.4946 7.86647C13.8338 7.69429 13.1416 7.61398 12.4476 7.62897V8.71231V8.70814Z" fill="white"/>
<path d="M12.014 10.9707C10.9879 10.9707 10.4413 12.1165 10.4413 12.1165C10.4413 12.1165 10.132 11.5749 9.29664 11.5749C8.72945 11.5749 8.31695 11.979 8.04883 12.3582C9.08008 13.679 10.7249 14.4957 12.014 14.9999C13.303 14.4999 14.953 13.679 15.9791 12.3582C15.711 11.9832 15.2985 11.5749 14.7313 11.5749C13.896 11.5749 13.5866 12.1165 13.5866 12.1165C13.5866 12.1165 13.0452 10.9707 12.014 10.9707Z" fill="#0B4EA2"/>
</g>
<defs>
<clipPath id="clip0_555_72">
<rect width="33" height="20" rx="3" fill="white"/>
</clipPath>
</defs>
</svg>
