<?xml version="1.0" standalone="no"?>
<!DOCTYPE svg PUBLIC "-//W3C//DTD SVG 20010904//EN"
 "http://www.w3.org/TR/2001/REC-SVG-20010904/DTD/svg10.dtd">
<svg version="1.0" xmlns="http://www.w3.org/2000/svg"
 width="720.000000pt" height="720.000000pt" viewBox="0 0 720.000000 720.000000"
 preserveAspectRatio="xMidYMid meet">
<metadata>
Created by potrace 1.14, written by Peter Selinger 2001-2017
</metadata>
<g transform="translate(0.000000,720.000000) scale(0.100000,-0.100000)"
fill="#000000" stroke="none">
<path d="M1649 7076 c-2 -2 -31 -7 -64 -10 -33 -4 -85 -12 -115 -18 -30 -6
-62 -12 -70 -13 -8 -2 -15 -4 -15 -5 0 -1 -12 -4 -28 -6 -92 -15 -364 -129
-470 -197 -32 -20 -60 -37 -63 -37 -18 0 -210 -158 -291 -240 -104 -105 -105
-106 -154 -170 -19 -25 -36 -47 -39 -50 -14 -14 -50 -70 -50 -78 0 -4 -8 -17
-17 -28 -57 -62 -179 -348 -215 -504 -11 -47 -22 -92 -25 -100 -3 -8 -7 -24
-8 -35 -1 -11 -6 -49 -11 -85 -10 -76 -10 -393 0 -464 4 -27 12 -72 18 -100 5
-28 11 -60 13 -72 4 -27 34 -129 52 -179 26 -68 30 -78 58 -145 44 -102 142
-270 199 -341 12 -14 32 -40 46 -59 14 -18 51 -61 82 -94 56 -60 57 -60 47
-26 -57 187 -77 393 -56 575 33 290 167 568 373 780 46 47 86 85 89 85 3 0 18
12 33 26 15 14 61 47 102 74 118 78 399 256 460 292 l55 33 -235 5 -235 5 45
18 c25 10 59 25 75 32 141 63 220 95 231 95 8 0 14 5 14 10 0 6 6 10 13 10 10
0 261 104 422 175 17 7 91 39 165 70 74 32 154 66 177 76 23 10 49 19 57 19 9
0 16 5 16 10 0 6 5 10 11 10 6 0 39 12 73 26 96 41 117 50 186 79 36 15 98 42
138 61 41 19 77 34 82 34 4 0 41 15 83 34 41 19 78 32 81 29 3 -4 6 -2 6 4 0
6 7 13 14 16 10 4 13 1 10 -8 -3 -7 -18 -18 -32 -24 -33 -13 -92 -47 -106 -61
-5 -5 -18 -10 -28 -10 -10 0 -18 -3 -18 -8 0 -4 -17 -16 -37 -27 -21 -11 -65
-36 -98 -56 -33 -20 -199 -116 -370 -214 -170 -98 -323 -186 -340 -195 -16
-10 -64 -37 -105 -60 -130 -74 -134 -70 51 -69 90 0 206 0 258 -1 l93 0 -54
-42 c-30 -24 -68 -52 -83 -63 -15 -11 -46 -35 -69 -53 -57 -45 -43 -34 -231
-176 -93 -71 -175 -135 -181 -143 -6 -7 -16 -13 -22 -13 -6 0 -12 -4 -14 -8
-1 -4 -39 -35 -83 -67 -44 -33 -85 -64 -91 -70 -6 -5 -62 -48 -124 -95 -112
-84 -220 -182 -220 -200 0 -5 8 -8 18 -8 9 0 31 -2 47 -6 50 -11 124 -17 252
-20 107 -2 161 1 303 18 59 7 175 35 295 70 6 2 23 8 38 14 16 7 31 12 33 12
14 0 264 119 274 131 3 3 31 21 63 40 31 18 57 37 57 41 0 5 5 8 11 8 6 0 26
12 44 28 18 15 52 43 76 62 42 34 155 146 214 212 41 46 166 225 190 273 11
22 22 42 25 45 7 7 560 1109 560 1116 0 5 -1955 5 -1961 0z"/>
<path d="M1421 4772 l-94 -3 -388 -388 c-214 -214 -389 -390 -389 -393 0 -2
513 -4 1140 -3 751 0 1141 -3 1143 -10 2 -5 4 -97 3 -203 -1 -105 3 -192 7
-192 5 0 5 -5 1 -11 -10 -17 -11 -229 -1 -229 5 0 5 -5 1 -12 -10 -16 -11
-708 -1 -708 5 0 5 -5 1 -11 -9 -16 -11 -229 -2 -229 4 0 4 -10 0 -22 -4 -13
-7 -86 -6 -164 l2 -141 -546 546 -547 546 -548 -2 c-302 -1 -550 -3 -553 -5
-2 -2 667 -674 1486 -1493 820 -819 1491 -1485 1491 -1480 1 6 2 1044 3 2308
l1 2297 -85 0 c-566 3 -2047 4 -2119 2z"/>
<path d="M3798 4772 l-57 -3 0 -2304 c0 -1268 2 -2305 5 -2305 3 0 181 175
395 389 l389 389 2 1523 3 1523 587 1 587 0 188 -188 c150 -150 185 -189 173
-197 -8 -5 -13 -10 -10 -10 3 0 -217 -223 -490 -495 l-495 -495 1 -550 c0
-302 2 -552 5 -554 2 -2 480 472 1061 1054 l1058 1058 -581 582 -581 581
-1092 2 c-600 1 -1117 1 -1148 -1z"/>
</g>
</svg>
